<svg width="309" height="309" viewBox="0 0 309 309" fill="none" xmlns="http://www.w3.org/2000/svg">
<path d="M154.275 308.652C239.376 308.652 308.364 239.664 308.364 154.563C308.364 69.4621 239.376 0.474121 154.275 0.474121C69.1741 0.474121 0.186035 69.4621 0.186035 154.563C0.186035 239.664 69.1741 308.652 154.275 308.652Z" fill="url(#paint0_linear)"/>
<path d="M207.106 136.953C213.314 136.401 190.045 75.2691 215.911 101.733C215.911 101.732 220.313 114.94 207.106 136.953Z" fill="#F7D6B2"/>
<path d="M196.099 108.336L202.703 110.537" stroke="#398674" stroke-width="0.75" stroke-miterlimit="10"/>
<path d="M132.682 196.387C132.682 196.387 82.262 220.601 70.627 282.237C70.627 282.237 145.47 339.47 237.924 282.237C237.924 282.237 221.886 218.4 175.345 191.985C175.344 191.984 159.831 222.802 132.682 196.387Z" fill="#3D88C1"/>
<path d="M132.263 185.38C132.263 185.38 132.263 189.783 132.263 194.185C132.263 207.393 123.458 211.795 123.458 211.795L154.276 216.198L185.094 207.393C185.094 207.393 174.088 196.387 174.088 187.582C174.087 178.777 132.263 185.38 132.263 185.38Z" fill="#F7D6B2"/>
<path d="M88.2372 101.732C88.2372 101.732 105.847 75.3173 97.0422 136.952C97.0422 136.953 83.8352 123.745 88.2372 101.732Z" fill="#F7D6B2"/>
<path d="M94.8413 134.751C94.8413 134.751 108.049 187.581 138.866 191.984C138.866 191.984 200.502 205.192 209.307 134.751C209.307 134.751 198.301 79.719 215.911 101.732C215.911 101.732 207.106 40.096 154.275 35.694C154.275 35.694 105.847 31.291 88.2373 101.732C88.2373 101.732 105.847 79.72 94.8413 134.751Z" fill="#C48871"/>
<path d="M127.86 158.965C127.86 158.965 97.0421 163.368 110.25 114.94C110.25 114.94 119.055 84.1221 176.288 84.1221C176.288 84.1221 193.898 84.1221 198.301 106.135C198.301 106.135 207.106 163.368 180.691 158.965C180.69 158.965 154.275 128.147 127.86 158.965Z" fill="#F7D6B2"/>
<path d="M154.275 172.173C154.275 172.173 141.067 180.978 132.262 172.173C132.262 172.173 127.859 167.77 132.262 158.965C132.262 158.965 154.275 136.952 171.885 158.965" fill="#F7D6B2"/>
<path d="M154.275 172.173C154.275 172.173 167.348 179.525 176.153 170.72C176.153 170.72 180.691 167.77 176.288 158.965C176.288 158.965 154.275 136.952 136.665 158.965" fill="#F7D6B2"/>
<path d="M115.64 108.336C115.64 103.933 149.847 106.135 149.847 110.537C149.847 110.537 156.688 130.348 129.323 130.348C129.322 130.349 115.64 130.349 115.64 108.336Z" stroke="#5B9BD6" stroke-width="0.5" stroke-miterlimit="10"/>
<path d="M196.742 109.199C196.829 104.643 165.436 105.143 163.723 111.4C163.723 111.4 157.119 131.211 183.534 131.211C183.534 131.211 196.319 131.207 196.742 109.199Z" stroke="#5B9BD6" stroke-width="0.5" stroke-miterlimit="10"/>
<path d="M116.071 107.472L110.25 111.683" stroke="#5B9BD6" stroke-width="0.5" stroke-miterlimit="10"/>
<path d="M149.873 110.537H164.169" stroke="#5B9BD6" stroke-width="0.5" stroke-miterlimit="10"/>
<path d="M178.489 194.186C178.489 194.186 156.476 220.601 125.658 194.186C125.658 194.186 112.45 194.186 112.45 207.394C112.45 207.394 101.444 205.193 105.846 213.998C105.846 213.998 88.2363 209.595 88.2363 236.011C88.2363 236.011 97.0413 288.841 105.846 293.244C105.846 293.244 105.846 275.634 110.249 271.231C110.249 271.231 119.054 275.634 119.054 280.036C119.054 280.036 123.457 244.816 114.651 231.608C114.651 231.608 154.274 258.023 189.494 236.011C189.494 236.011 180.689 280.036 185.091 288.841L193.896 275.633C193.896 275.633 202.701 293.243 202.701 302.048C202.701 310.853 202.701 302.048 202.701 302.048C202.701 302.048 211.506 240.412 224.714 231.607C224.714 231.607 215.909 218.399 207.104 218.399C207.104 218.399 215.909 200.789 193.896 205.191C193.898 205.192 189.496 191.984 178.489 194.186Z" fill="#8C3625"/>
<path d="M154.275 84.1221C154.275 84.1221 132.262 110.537 105.847 105.017C105.847 105.017 138.132 91.0871 138.132 84.1221" fill="#C48871"/>
<path d="M196.099 108.336L202.703 114.94" stroke="#5B9BD6" stroke-width="0.5" stroke-miterlimit="10"/>
<path d="M149.873 70.9143C149.873 66.5113 158.678 84.1223 114.653 101.732C114.652 101.732 149.873 75.3173 149.873 70.9143Z" fill="#B57E6D"/>
<path d="M114.652 207.393C114.652 207.393 149.872 238.211 193.898 207.393" stroke="#843328" stroke-width="0.25" stroke-miterlimit="10"/>
<path d="M105.847 216.198C105.847 216.198 154.275 260.223 202.703 220.601" stroke="#843328" stroke-width="0.25" stroke-miterlimit="10"/>
<defs>
<linearGradient id="paint0_linear" x1="0.186335" y1="154.563" x2="308.364" y2="154.563" gradientUnits="userSpaceOnUse">
<stop stop-color="#8084F6"/>
<stop offset="1" stop-color="#53C7DA"/>
</linearGradient>
</defs>
</svg>
