<svg width="308" height="310" viewBox="0 0 308 310" fill="none" xmlns="http://www.w3.org/2000/svg">
<path d="M153.821 308.384C238.774 308.384 307.642 239.516 307.642 154.563C307.642 69.6097 238.774 0.741699 153.821 0.741699C68.868 0.741699 0 69.6097 0 154.563C0 239.516 68.868 308.384 153.821 308.384Z" fill="url(#paint0_linear)"/>
<path d="M136.242 179.069C136.242 179.069 136.242 183.464 136.242 187.859C136.242 201.044 127.452 205.439 127.452 205.439L158.216 209.834L188.98 201.044C188.98 201.044 175.795 185.327 177.993 176.872C180.204 168.365 136.242 179.069 136.242 179.069Z" fill="#F7D6B2"/>
<path d="M98.885 128.528C98.885 128.528 109.872 167.748 136.242 180.932C136.242 180.932 171.401 220.486 206.56 128.193C206.56 128.193 210.955 84.2437 202.165 79.8487C202.165 79.8487 210.955 34.0367 158.216 29.6417C158.216 29.6417 109.872 25.2467 92.293 95.5647C92.293 95.5657 109.872 73.5917 98.885 128.528Z" fill="#F7D6B2"/>
<path d="M134.238 196.456C134.238 196.456 81.9338 220.486 70.3188 282.015C70.3188 282.015 145.032 343.544 239.297 282.157C239.297 282.157 231.046 220.487 184.586 194.117C184.586 194.117 161.34 222.826 134.238 196.456Z" fill="#5AD1D5"/>
<path d="M180.191 176.536L171.401 180.932C171.401 180.932 228.535 101.824 193.375 66.6645C193.375 66.6645 228.534 66.6645 193.375 66.6645C193.375 66.6645 175.795 106.219 109.872 110.614C109.872 110.614 105.477 167.747 131.846 176.536C79.1901 157.952 84.3831 103.604 92.0381 73.1315C96.0511 57.1565 105.479 42.9195 119.047 33.5805C139.777 19.3125 173.597 8.07351 206.559 49.5955C206.56 49.5965 254.904 128.192 180.191 176.536Z" fill="#2B2921"/>
<path d="M136.242 198.512C136.242 198.512 145.032 277.644 136.242 308.417C136.242 308.417 167.006 312.913 188.981 303.761C188.981 303.761 175.796 286.436 180.191 198.512C180.191 198.512 158.216 216.097 136.242 198.512Z" fill="#3D88C1"/>
<path d="M188.981 57.8745C188.981 57.8745 162.612 106.219 105.478 101.824C105.478 101.824 149.427 97.4285 188.981 57.8745Z" fill="#21201A"/>
<defs>
<linearGradient id="paint0_linear" x1="0" y1="154.562" x2="307.643" y2="154.562" gradientUnits="userSpaceOnUse">
<stop stop-color="#8084F6"/>
<stop offset="1" stop-color="#53C7DA"/>
</linearGradient>
</defs>
</svg>
