<svg width="309" height="309" viewBox="0 0 309 309" fill="none" xmlns="http://www.w3.org/2000/svg">
<path d="M154.911 308.453C240.012 308.453 309 239.465 309 154.364C309 69.2629 240.012 0.274902 154.911 0.274902C69.8102 0.274902 0.822266 69.2629 0.822266 154.364C0.822266 239.465 69.8102 308.453 154.911 308.453Z" fill="url(#paint0_linear)"/>
<path d="M207.742 136.754C213.95 136.202 190.68 75.0699 216.547 101.534C216.547 101.533 220.949 114.741 207.742 136.754Z" fill="#F7D6B2"/>
<path d="M196.735 108.137L203.339 110.338" stroke="#398674" stroke-width="0.75" stroke-miterlimit="10"/>
<path d="M128.204 208.23C128.204 208.23 82.6062 221.438 70.9712 283.073C67.3412 280.594 145.814 340.306 238.268 283.073C238.268 283.073 231.979 234.645 185.438 208.23C185.438 208.23 155.353 234.646 128.204 208.23Z" fill="#7D86F5"/>
<path d="M132.898 185.182C132.898 185.182 132.898 189.585 132.898 193.987C132.898 207.195 124.093 211.597 124.093 211.597L154.619 234.646L185.437 208.231C185.437 208.231 174.722 196.189 174.722 187.383C174.723 178.578 132.898 185.182 132.898 185.182Z" fill="#F7D6B2"/>
<path d="M88.8732 101.533C88.8732 101.533 106.483 75.1181 97.6782 136.753C97.6782 136.754 84.4702 123.546 88.8732 101.533Z" fill="#F7D6B2"/>
<path d="M95.4771 134.552C95.4771 134.552 108.685 187.382 139.502 191.785C139.502 191.785 201.137 204.993 209.943 134.552C209.943 134.552 198.937 79.5198 216.547 101.533C216.547 101.533 207.742 39.8968 154.911 35.4948C154.911 35.4948 106.483 31.0918 88.873 101.533C88.873 101.533 106.483 79.5208 95.4771 134.552Z" fill="#F7D6B2"/>
<path d="M92.9841 142.192C92.9841 142.192 62.1661 84.9589 113.794 46.4329C113.794 46.4329 172.23 6.80187 204.44 59.4709C204.44 59.4709 231.664 108.223 207.45 146.595C207.45 146.595 198.645 119.662 198.645 101.604C198.645 101.604 189.84 101.604 165.626 112.89L167.827 88.0609C167.827 88.0609 167.956 112.251 92.9841 142.192Z" fill="#282727"/>
<path d="M100.143 131.634C90.2253 135.862 141.412 120.18 154.619 98.167C154.62 98.167 124.913 121.076 100.143 131.634Z" fill="#212020"/>
<path d="M96.383 122.218C81.773 130.818 157.176 98.9181 176.633 54.1411C176.632 54.1421 132.871 100.741 96.383 122.218Z" fill="#212020"/>
<path d="M176.632 252.256C179.644 252.256 197.718 252.256 197.718 252.256V267.317C197.718 267.317 188.681 276.354 176.632 267.317V252.256Z" fill="#FFF0E1"/>
<defs>
<linearGradient id="paint0_linear" x1="0.822366" y1="154.364" x2="309" y2="154.364" gradientUnits="userSpaceOnUse">
<stop stop-color="#8084F6"/>
<stop offset="1" stop-color="#53C7DA"/>
</linearGradient>
</defs>
</svg>
